<svg width="70" height="70" viewBox="0 0 70 70" fill="none" xmlns="http://www.w3.org/2000/svg">
<path d="M68.2145 47.0145H64.9865V15.0179C64.9865 12.381 62.8345 10.229 60.1976 10.229H9.79054C7.15372 10.229 5.00169 12.381 5.00169 15.0179V47.0145H1.77365C0.79223 47.0145 0 47.8067 0 48.7881V50.7155C0 55.4807 3.87838 59.3709 8.65541 59.3709H61.3446C66.1098 59.3709 70 55.4925 70 50.7155V48.7881C69.9882 47.8067 69.196 47.0145 68.2145 47.0145ZM66.4409 50.7155C66.4409 53.5297 64.147 55.8236 61.3328 55.8236H8.65541C5.84122 55.8236 3.5473 53.5297 3.5473 50.7155V50.5618H24.902L25.6233 52.0398C25.9189 52.6547 26.5338 53.0331 27.2196 53.0331H42.7568C43.4307 53.0331 44.0574 52.6429 44.353 52.0398L45.0743 50.5618H66.4291V50.7155H66.4409ZM8.54899 15.0179C8.54899 14.332 9.10473 13.7763 9.79054 13.7763H60.1976C60.8834 13.7763 61.4392 14.332 61.4392 15.0179V47.0145H43.9747C43.3007 47.0145 42.674 47.4047 42.3784 48.0077L42 48.7881L41.6571 49.4858H28.3311L27.9882 48.7881L27.6098 48.0077C27.3142 47.3929 26.6993 47.0145 26.0135 47.0145H8.54899V15.0179Z" fill="#333333"/>
<path d="M43.8184 17C41.5107 17 39.6277 18.8646 39.6277 21.1496C39.6277 22.4292 40.2184 23.5809 41.1415 24.3395L39.1477 29.5951C39.1107 29.5951 39.0646 29.5951 39.0277 29.5951C38.1415 29.5951 37.3107 29.8693 36.6369 30.3446L33.9692 28.4069C34.0892 28.023 34.1446 27.6209 34.1446 27.2095C34.1446 24.9245 32.2615 23.0599 29.9538 23.0599C27.6461 23.0599 25.7631 24.9245 25.7631 27.2095C25.7631 28.4892 26.3538 29.6408 27.2769 30.3995L25.2646 35.7007C25.2369 35.7007 25.2 35.7007 25.1723 35.7007C22.8831 35.7007 21 37.5653 21 39.8504C21 42.1354 22.8831 44 25.1908 44C27.4985 44 29.3815 42.1354 29.3815 39.8504C29.3815 38.5708 28.7908 37.4282 27.8769 36.6696L29.8892 31.35C29.9169 31.35 29.9354 31.35 29.9631 31.35C30.8492 31.35 31.6615 31.0758 32.3354 30.6188L35.0123 32.5657C34.9015 32.9404 34.8369 33.3334 34.8369 33.7448C34.8369 36.0298 36.72 37.8944 39.0277 37.8944C41.3354 37.8944 43.2184 36.0298 43.2184 33.7448C43.2184 32.4743 42.6461 31.3409 41.7323 30.5823L43.7354 25.2901C43.763 25.2901 43.7815 25.2901 43.8092 25.2901C46.1169 25.2901 48 23.4255 48 21.1405C48.0092 18.8646 46.1261 17 43.8184 17ZM25.1908 41.258C24.4061 41.258 23.7692 40.6273 23.7692 39.8504C23.7692 39.567 23.8523 39.302 24 39.0826C24.2585 38.6987 24.6923 38.4428 25.1908 38.4428C25.9754 38.4428 26.6123 39.0735 26.6123 39.8504C26.6123 39.9144 26.6031 39.9783 26.5938 40.0423C26.5015 40.7278 25.9108 41.258 25.1908 41.258ZM29.9631 28.6171C29.1785 28.6171 28.5415 27.9865 28.5415 27.2095C28.5415 27.1638 28.5415 27.1273 28.5508 27.0816C28.6154 26.3687 29.2246 25.802 29.9631 25.802C30.3784 25.802 30.7477 25.9756 31.0061 26.259C31.2369 26.5058 31.3846 26.8439 31.3846 27.2095C31.3846 27.9865 30.7477 28.6171 29.9631 28.6171ZM40.2277 34.4942C39.9784 34.8873 39.5354 35.1523 39.0277 35.1523C38.8892 35.1523 38.7507 35.1341 38.6215 35.0884C38.4184 35.0244 38.2338 34.9238 38.0769 34.7867C37.7907 34.5308 37.6061 34.1561 37.6061 33.7448C37.6061 32.9678 38.2431 32.3372 39.0277 32.3372C39.8123 32.3372 40.4492 32.9678 40.4492 33.7448C40.4492 33.8819 40.4307 34.0098 40.3938 34.1286C40.3569 34.2566 40.3015 34.3846 40.2277 34.4942ZM45.0461 21.8534C44.7969 22.2739 44.3446 22.5481 43.8184 22.5481C43.0338 22.5481 42.3969 21.9174 42.3969 21.1405C42.3969 21.0948 42.3969 21.0491 42.4061 21.0034C42.4707 20.2905 43.08 19.7329 43.8184 19.7329C44.603 19.7329 45.24 20.3636 45.24 21.1405C45.24 21.4056 45.1661 21.6523 45.0461 21.8534Z" fill="#1E69B8"/>
</svg>

