<svg width="70" height="70" viewBox="0 0 70 70" fill="none" xmlns="http://www.w3.org/2000/svg">
<path d="M56.1517 40.5368C54.4794 40.0909 52.726 40.0098 51.0233 40.3037L45.074 34.3645L45.449 33.9895L53.324 34.1415C56.0706 34.1922 58.7158 32.9253 60.3983 30.7463C60.8645 30.1381 60.8138 29.2868 60.2665 28.7395L59.7192 28.1922C63.53 22.7091 64.8881 17.1956 64.949 16.9625C65.0706 16.4456 64.9186 15.9084 64.5436 15.5334L61.6753 12.6652C61.0773 12.0672 60.1145 12.0672 59.5267 12.6652L51.8544 20.3375L49.3915 17.8544L57.0638 10.1821C57.3476 9.89829 57.5098 9.51315 57.5098 9.10775C57.5098 8.70234 57.3476 8.31721 57.0638 8.03342L53.476 4.44558C53.1415 4.11112 52.6753 3.94896 52.199 4.00977C51.9253 4.05031 45.3476 4.95234 39.4084 8.99626C36.9557 10.6584 35.5267 13.4253 35.5875 16.3848L35.7395 24.2598L32.6179 27.3814L27.7936 32.2057L20.6686 25.0807C20.2429 24.655 19.6044 24.5233 19.0469 24.7361C15.7125 26.0233 12.2969 25.476 10.1382 23.3273C8.27329 21.4625 7.62464 18.6753 8.29356 15.8273L11.3949 18.9287C12.1044 19.6382 13.0368 20.0233 14.0402 20.0233C15.0436 20.0233 15.976 19.6382 16.6854 18.9287L19.9388 15.6753C20.6483 14.9659 21.0334 14.0334 21.0334 13.03C21.0334 12.0267 20.6483 11.0942 19.9388 10.3848L16.8375 7.28342C19.6854 6.62464 22.4726 7.27329 24.3375 9.12802C26.4963 11.2868 27.0334 14.6922 25.7463 18.0368C25.5334 18.5942 25.6652 19.2327 26.0909 19.6584L30.7631 24.3307C31.128 24.6956 31.6449 24.8375 32.1213 24.7463C32.4152 24.6956 32.6888 24.5537 32.9118 24.3307C33.5098 23.7327 33.5098 22.7699 32.9118 22.1821L28.9084 18.1888C30.1753 14.0132 29.2834 9.79694 26.476 6.9895C23.2327 3.74626 18.1044 3.07734 13.4017 5.2868C12.9557 5.49964 12.6314 5.91518 12.5503 6.40167C12.4692 6.88815 12.6213 7.38477 12.976 7.7395L17.7902 12.5537C17.9726 12.7361 17.9929 12.9388 17.9929 13.0503C17.9929 13.1618 17.9625 13.3645 17.7902 13.5469L14.5368 16.8003C14.3645 16.9827 14.1517 17.003 14.0402 17.003C13.9287 17.003 13.726 16.9726 13.5436 16.8003L8.7395 11.976C8.38477 11.6213 7.88815 11.4692 7.40167 11.5503C6.91518 11.6314 6.49964 11.9557 6.2868 12.4017C4.07734 17.1044 4.74626 22.2327 7.9895 25.476C10.7969 28.2834 15.0132 29.1753 19.1888 27.9084L25.6348 34.3544L9.07396 50.9253C6.39829 53.601 6.39829 57.9692 9.07396 60.6449C10.3713 61.9422 12.0942 62.6618 13.9388 62.6618C15.7733 62.6618 17.4963 61.9422 18.7936 60.6449L32.9017 46.5368L36.4186 43.0098C36.4186 43.0098 36.4186 43.0098 36.4287 42.9996C36.4287 42.9996 36.4287 42.9996 36.4388 42.9895L38.7395 40.6888L42.9253 36.503L49.4523 43.03C49.8273 43.405 50.3746 43.5571 50.8915 43.4253C53.9523 42.6652 57.1145 43.5368 59.3442 45.7665C61.0267 47.449 61.949 49.6787 61.949 52.0503C61.949 54.4219 61.0267 56.6618 59.3442 58.3341C57.6618 60.0165 55.4321 60.9388 53.0503 60.9388C50.6787 60.9388 48.4388 60.0165 46.7665 58.3341C44.5368 56.1044 43.6652 52.9422 44.4253 49.8814C44.5571 49.3645 44.405 48.8172 44.03 48.4422L39.9659 44.3881C39.6618 44.0841 39.2463 43.9321 38.8409 43.9422C38.4659 43.9523 38.101 44.1044 37.8071 44.3881C37.2091 44.9861 37.2091 45.949 37.8071 46.5368L41.2936 50.0233C40.9996 51.726 41.0807 53.4794 41.5267 55.1517C42.0638 57.1686 43.1381 59.0131 44.6179 60.503C46.8679 62.753 49.8679 63.9996 53.0604 63.9996C56.253 63.9996 59.2429 62.7631 61.503 60.503C63.753 58.253 64.9996 55.253 64.9996 52.0604C64.9996 48.8679 63.753 45.878 61.503 43.6179C60.0233 42.1381 58.1686 41.074 56.1517 40.5368ZM35.3645 39.7767L35.0199 40.1213L34.2902 40.851L33.2159 41.9253L16.6449 58.4963C15.9253 59.2159 14.9625 59.6213 13.9388 59.6213C12.9152 59.6213 11.9523 59.226 11.2327 58.4963C9.74288 57.0064 9.74288 54.574 11.2327 53.074L27.7936 36.5131L28.8679 35.4388L29.9422 34.3645L33.2969 31.0098L38.3442 25.9625C38.6381 25.6686 38.8003 25.2733 38.7902 24.8577L38.628 16.3341C38.5875 14.4084 39.5199 12.6044 41.1213 11.5199C45.3679 8.63139 50.1111 7.50639 51.8848 7.1618L53.8409 9.11788L46.1686 16.7902C45.8848 17.074 45.7226 17.4591 45.7226 17.8645C45.7226 18.2699 45.8848 18.655 46.1686 18.9388L56.6584 29.4287L57.074 29.8442C56.0402 30.6753 54.7327 31.1314 53.3949 31.1111L44.8713 30.949C44.4557 30.9388 44.0604 31.101 43.7665 31.3949L42.9354 32.226L41.8611 33.2902L40.7767 34.3645L38.6179 36.5233L35.3645 39.7767ZM60.6111 15.8882L61.7665 17.0436C61.2902 18.6246 60.003 22.2936 57.5402 26.003L54.0131 22.476L60.6111 15.8882Z" fill="#333333"/>
<path d="M50.6283 58.223C50.9121 58.5169 51.3074 58.669 51.7026 58.669C51.8344 58.669 51.9661 58.6487 52.0979 58.6183L57.1756 57.2602C57.7026 57.1183 58.108 56.7129 58.2499 56.1858L59.608 51.1081C59.7499 50.5811 59.5979 50.0237 59.2128 49.6386L55.4932 45.919C55.108 45.5338 54.5506 45.3818 54.0236 45.5237L48.9459 46.8717C48.4188 47.0136 48.0134 47.419 47.8716 47.946L46.5134 53.0237C46.3716 53.5507 46.5236 54.1081 46.9087 54.4933L50.6283 58.223ZM50.5878 49.5879L53.9729 48.6757L56.456 51.1588L55.554 54.544L52.1688 55.446L49.6857 52.9629L50.5878 49.5879Z" fill="#1E69B8"/>
<path d="M42.0743 26.6925C42.2871 27.331 42.8749 27.7365 43.5135 27.7365C43.6756 27.7365 43.8378 27.7162 43.9898 27.6554C44.7804 27.3919 45.206 26.5405 44.9527 25.75C44.6993 24.9594 43.8581 24.5135 43.0574 24.7567C42.2567 25 41.8006 25.8513 42.054 26.652C42.0641 26.6723 42.0641 26.6824 42.0743 26.6925Z" fill="#1E69B8"/>
</svg>

