<svg width="70" height="70" viewBox="0 0 70 70" fill="none" xmlns="http://www.w3.org/2000/svg">
<path fill-rule="evenodd" clip-rule="evenodd" d="M11.5406 14.4316H26.517C30.6015 14.4316 34.0576 17.7666 34.0576 21.9354V36.9428L45.5779 44.1339L47.1488 40.6947C44.74 39.1314 42.9596 37.2555 45.2637 34.3374C45.2637 38.0892 57.936 40.0694 53.0137 45.8014C53.0137 44.4466 51.4428 43.3002 49.5576 42.258L47.9867 45.6972L55.7367 50.5955C56.4698 50.0744 57.4124 49.7617 58.3549 49.7617C60.7637 49.7617 62.8583 51.7419 62.8583 54.2431C62.8583 56.7444 60.8685 58.7245 58.3549 58.7245C56.4698 58.7245 54.8989 57.5781 54.2705 56.0148L45.6826 56.9528C45.159 58.9329 43.4833 60.2878 41.3887 60.2878C38.9799 60.2878 36.8853 58.3076 36.8853 55.8064C36.8853 55.1811 36.99 54.4515 37.3042 53.9305L33.9528 50.5955V60.4962C33.9528 64.5607 30.6015 68 26.4123 68H11.5406C7.45609 68 4 64.665 4 60.4962V21.9354C4 17.8709 7.35136 14.4316 11.5406 14.4316ZM46.8346 48.5111L44.8448 52.8883C45.159 53.2009 45.3684 53.5136 45.5779 53.9305L54.1657 52.9925L46.8346 48.5111ZM42.2265 51.4292L44.3211 46.8436L34.0576 40.3821V46.4267L39.5035 51.8461C40.1319 51.5334 40.7603 51.4292 41.4934 51.4292C41.7029 51.4292 42.017 51.4292 42.2265 51.4292ZM41.4934 54.3473C42.3312 54.3473 42.9596 54.9726 42.9596 55.8064C42.9596 56.6401 42.3312 57.2654 41.4934 57.2654C40.6556 57.2654 40.0272 56.6401 40.0272 55.8064C40.0272 55.0769 40.6556 54.3473 41.4934 54.3473ZM58.4597 52.784C59.2975 52.784 59.9259 53.4094 59.9259 54.2431C59.9259 55.0769 59.2975 55.7022 58.4597 55.7022C57.6218 55.7022 56.9935 55.0769 56.9935 54.2431C56.9935 53.4094 57.6218 52.784 58.4597 52.784ZM57.8313 35.0669C64.2198 31.2108 49.6623 25.8957 49.7671 25.8957C47.5677 29.4391 58.3549 32.1488 57.8313 35.0669ZM55.5272 40.4863C60.2401 35.0669 47.5677 32.5657 47.6725 29.1264C42.9596 34.5458 55.632 36.9428 55.5272 40.4863ZM31.1251 22.5607V21.9354C31.1251 19.4341 29.0305 17.454 26.6217 17.454H25.9933L31.1251 22.5607ZM31.1251 26.7294L23.4798 19.1215V23.2902L31.1251 30.8982V26.7294ZM31.1251 35.0669L23.4798 27.459V31.6277L31.1251 39.2356V35.0669ZM31.1251 43.5086L23.4798 35.9007V40.0694L31.1251 47.6773V43.5086ZM31.1251 51.8461L23.4798 44.2381V48.4069L31.1251 56.0148V51.8461ZM31.1251 60.1836L23.4798 52.5756V56.7444L30.0778 63.3101C30.7062 62.5806 31.1251 61.5384 31.1251 60.4962V60.1836ZM27.4596 64.9776L23.4798 61.0173V65.0818H26.517C26.8312 65.0818 27.1454 64.9776 27.4596 64.9776ZM6.93244 26.7294L14.5777 19.1215V23.2902L6.93244 30.8982V26.7294ZM12.169 17.454L7.03717 22.5607V21.9354C7.03717 19.4341 9.13178 17.454 11.5406 17.454H12.169ZM6.93244 35.0669L14.5777 27.459V31.6277L6.93244 39.2356V35.0669ZM6.93244 43.5086L14.5777 35.9007V40.0694L6.93244 47.6773V43.5086ZM6.93244 51.8461L14.5777 44.2381V48.4069L6.93244 56.0148V51.8461ZM6.93244 60.1836L14.5777 52.5756V56.7444L7.97975 63.3101C7.35136 62.5806 6.93244 61.5384 6.93244 60.4962V60.1836ZM10.598 64.9776L14.5777 61.0173V65.0818H11.5406C11.2264 65.0818 10.9122 64.9776 10.598 64.9776ZM17.5102 17.454V65.0818H20.4426V17.454H17.5102Z" fill="#333333"/>
<path fill-rule="evenodd" clip-rule="evenodd" d="M60.8685 24.2282L52.909 20.789C53.7468 18.8089 53.4326 19.5384 54.2705 17.5582C57.7265 19.0173 58.7739 19.5384 62.2299 20.9974L60.8685 24.2282ZM61.9158 11.2009C63.0678 11.722 64.3245 11.2009 64.8482 10.0545C65.2671 8.9081 64.7435 7.65748 63.6962 7.13639C62.5441 6.61529 61.2874 7.13639 60.7637 8.28279C60.2401 9.42919 60.7637 10.6798 61.9158 11.2009ZM58.1455 15.995C58.5644 15.057 58.9833 14.0148 59.4022 13.0768C59.8212 13.3895 60.2401 13.7022 60.659 13.9106C61.1826 14.119 61.6016 14.2232 62.1252 14.3275C61.7063 15.2654 61.2874 16.3076 60.8685 17.2456C59.9259 16.8287 59.088 16.4118 58.1455 15.995ZM61.0779 27.5632C61.811 27.8759 62.6489 27.5632 62.9631 26.8337C64.0104 24.3324 63.9056 24.5409 65.0577 22.1439C65.686 20.6848 65.0577 19.0173 63.5914 18.392C64.0104 18.6004 63.1725 18.1835 63.5914 18.392C64.3245 16.7245 65.0577 15.057 65.7908 13.3895C66.5239 12.8684 67.1523 12.1389 67.5712 11.2009C68.7232 8.59544 67.4664 5.57311 64.8482 4.4267C62.2299 3.2803 59.1928 4.53092 58.0407 7.13639C57.6218 8.07435 57.5171 9.01232 57.6218 9.84607C56.8887 11.5136 56.1556 13.1811 55.4225 14.8486C55.8414 15.057 55.0036 14.6401 55.4225 14.8486C53.9563 14.2232 52.2806 14.8486 51.6522 16.3076L49.5576 20.9974C49.2434 21.727 49.5576 22.5607 50.2907 22.8734L61.0779 27.5632Z" fill="#1E69B8"/>
</svg>

