<svg width="70" height="70" viewBox="0 0 70 70" fill="none" xmlns="http://www.w3.org/2000/svg">
<g clip-path="url(#clip0)">
<path d="M62.5258 0.0118408H61.2722C60.2906 0.0118408 59.4982 0.804071 59.4982 1.78549C59.4982 2.76691 60.2906 3.55914 61.2722 3.55914H62.5258C64.69 3.55914 66.4521 5.32096 66.4521 7.48481V30.4477C66.4521 32.6115 64.69 34.3733 62.5258 34.3733H58.8241C58.3866 34.3733 57.9726 34.527 57.6415 34.8227L50.7231 40.9713V36.147C50.7231 35.1656 49.9307 34.3733 48.9492 34.3733H31.1269C28.9627 34.3733 27.2006 32.6115 27.2006 30.4477V7.48481C27.2006 5.32096 28.9627 3.55914 31.1269 3.55914H38.8968C39.8784 3.55914 40.6707 2.76691 40.6707 1.78549C40.6707 0.804071 39.8784 0.0118408 38.8968 0.0118408H31.1269C26.9995 0.0118408 23.6527 3.36995 23.6527 7.48481V30.4477C23.6527 34.5743 27.0113 37.9206 31.1269 37.9206H47.187V44.9206C47.187 45.6183 47.6009 46.2568 48.2396 46.5406C48.4761 46.647 48.7245 46.6943 48.961 46.6943C49.3867 46.6943 49.8125 46.5406 50.1436 46.2449L59.5101 37.9206H62.5376C66.665 37.9206 70.0118 34.5625 70.0118 30.4477V7.48481C70 3.35812 66.6532 0.0118408 62.5258 0.0118408Z" fill="#333333"/>
<path d="M3.21676 64.9273C3.51242 65.1047 3.83173 65.1993 4.15104 65.1993C4.74235 65.1993 5.32184 64.9037 5.65298 64.3716C6.17334 63.5439 5.92499 62.4442 5.08532 61.9239C4.11556 61.3209 3.53607 60.2685 3.53607 59.1334V54.2027C3.53607 53.4341 4.08008 52.7483 4.84879 52.5945L10.62 51.3648C11.0458 51.2702 11.4242 51.0337 11.6844 50.679L14.7592 46.4814C16.0247 44.755 18.047 43.7381 20.1757 43.7381H31.3989C33.2438 43.7381 35.0296 44.5067 36.295 45.8547L40.9782 50.8446C41.6523 51.554 42.7758 51.5895 43.4854 50.9273C44.195 50.2533 44.2304 49.13 43.5682 48.4206L38.8849 43.4307C36.9573 41.3733 34.2254 40.1908 31.3989 40.1908H20.1757C16.9116 40.1908 13.825 41.7635 11.8973 44.3885L9.22453 48.0185L4.11556 49.1064C1.72664 49.6148 0 51.755 0 54.1908V59.1216C0 61.4983 1.20628 63.6621 3.21676 64.9273Z" fill="#333333"/>
<path d="M56.0924 62.4206H50.7469C50.4512 58.8378 47.4355 56.0236 43.7812 56.0236C40.1268 56.0236 37.1229 58.8497 36.8154 62.4206H21.3939C21.0983 58.8378 18.0825 56.0236 14.4282 56.0236C10.5728 56.0236 7.43884 59.1571 7.43884 63.0118C7.43884 66.8666 10.5728 70 14.4282 70C17.231 70 19.6436 68.3446 20.7553 65.9679H37.4422C38.5539 68.3446 40.9783 70 43.7693 70C46.5722 70 48.9847 68.3446 50.0964 65.9679H56.0687C58.5759 65.9679 60.6218 63.9223 60.6218 61.4155V59.1689C60.6218 56.2956 59.1909 53.6588 56.7783 52.098C56.0332 51.6132 55.2172 51.2584 54.3657 51.022L47.5064 49.1892C46.5603 48.9409 45.5906 49.4966 45.3304 50.4426C45.0821 51.3885 45.6379 52.3581 46.584 52.6182L53.4433 54.451C53.94 54.5811 54.413 54.7939 54.8388 55.0777C56.2343 55.9882 57.0621 57.5135 57.0621 59.1807V61.4274C57.0976 61.9713 56.6482 62.4206 56.0924 62.4206ZM47.2344 63.0118C47.2344 64.2652 46.5603 65.3649 45.5551 65.9679C45.0347 66.2753 44.4434 66.4527 43.793 66.4527C43.1544 66.4527 42.5512 66.2753 42.0309 65.9679C41.0256 65.3649 40.3515 64.2652 40.3515 63.0118C40.3515 62.8108 40.3752 62.6098 40.3988 62.4206C40.6827 60.8007 42.09 59.5709 43.793 59.5709C45.496 59.5709 46.9033 60.8007 47.1871 62.4206C47.2108 62.6098 47.2344 62.8108 47.2344 63.0118ZM17.8815 63.0118C17.8815 64.2652 17.2074 65.3649 16.2022 65.9679C15.6818 66.2753 15.0905 66.4527 14.44 66.4527C13.8014 66.4527 13.1983 66.2753 12.6779 65.9679C11.6727 65.3649 10.9986 64.2652 10.9986 63.0118C10.9986 62.8108 11.0222 62.6098 11.0459 62.4206C11.3297 60.8007 12.737 59.5709 14.44 59.5709C16.143 59.5709 17.5504 60.8007 17.8342 62.4206C17.8578 62.6098 17.8815 62.8108 17.8815 63.0118Z" fill="#333333"/>
<path d="M32.4514 21.7094C31.2687 22.9037 30.6064 24.4763 30.6064 26.1554C30.6064 27.8344 31.2687 29.4189 32.4514 30.6013C33.634 31.7956 35.2187 32.4459 36.898 32.4459C38.5774 32.4459 40.1621 31.7956 41.3447 30.6013L50.7348 21.2128C54.3419 22.2179 57.9489 21.3902 60.3851 18.9544C63.0224 16.3175 63.7674 12.2382 62.3246 8.33613C62.2418 8.11147 62.1472 7.89863 62.029 7.68579C61.958 7.39018 61.8043 7.1064 61.5677 6.86991L61.0237 6.32599C61.0001 6.30234 60.9764 6.2787 60.9528 6.26687C60.9291 6.24322 60.9055 6.2314 60.8818 6.20775C60.8581 6.1841 60.8345 6.17228 60.799 6.14863C60.7754 6.1368 60.7517 6.11316 60.7281 6.10133C60.7044 6.08951 60.6808 6.07768 60.6571 6.05403C60.6335 6.04221 60.6098 6.01856 60.5743 6.00674C60.5625 5.99491 60.5388 5.99491 60.527 5.98309C60.4915 5.97126 60.4561 5.94762 60.4206 5.93579C60.4088 5.93579 60.4088 5.93579 60.3969 5.92397C60.3614 5.91214 60.3141 5.90032 60.2787 5.87667C59.6755 5.68748 58.9778 5.8412 58.5047 6.31417L54.4483 10.3699C54.4128 10.4054 54.3419 10.4054 54.3064 10.3699L52.6507 8.71451C52.6389 8.70268 52.627 8.69086 52.627 8.64356C52.627 8.60809 52.6507 8.58444 52.6507 8.57261L56.7071 4.51687C57.0383 4.18579 57.2275 3.73647 57.2275 3.26349C57.2275 2.79052 57.0383 2.3412 56.7071 2.01012C56.1158 1.4189 55.4417 0.981399 54.6966 0.709439C50.7821 -0.733128 46.7139 0.0118044 44.0766 2.64863C41.6404 5.08444 40.8244 8.69086 41.8178 12.2973L32.4514 21.7094ZM50.7703 3.54728C51.3261 3.54728 51.9056 3.61822 52.4851 3.74829L50.1553 6.07768C49.4694 6.76349 49.091 7.68579 49.091 8.65538C49.091 9.62498 49.4694 10.5473 50.1553 11.2331L51.811 12.8885C53.2302 14.3074 55.5481 14.3074 56.9673 12.8885L59.2971 10.5591C59.8293 12.8175 59.3089 15.005 57.8779 16.4476C56.1986 18.1267 53.5258 18.5405 50.8886 17.5236C50.2381 17.2753 49.4931 17.429 48.9964 17.9257L38.8376 28.0828C38.3172 28.603 37.6313 28.8868 36.898 28.8868C36.1648 28.8868 35.4789 28.603 34.9585 28.0828C34.4382 27.5625 34.1543 26.8767 34.1543 26.1436C34.1543 25.4105 34.4382 24.7246 34.9585 24.2044L45.1173 14.0473C45.614 13.5507 45.7678 12.8057 45.5194 12.1554C44.5024 9.53039 44.9163 6.84626 46.5956 5.16721C47.6718 4.10302 49.1501 3.54728 50.7703 3.54728Z" fill="#1E69B8"/>
</g>
<defs>
<clipPath id="clip0">
<rect width="70" height="70" fill="white"/>
</clipPath>
</defs>
</svg>

