<svg width="70" height="70" viewBox="0 0 70 70" fill="none" xmlns="http://www.w3.org/2000/svg">
<path d="M35 70C44.353 70 53.1385 66.3575 59.7483 59.7466C66.3581 53.1357 70 44.3487 70 34.9941C70 25.6395 66.3581 16.8525 59.7483 10.2416C53.1267 3.64251 44.3412 0 35 0C25.647 0 16.8615 3.64251 10.2517 10.2534C3.64189 16.8643 0 25.6513 0 35.0059C0 44.3487 3.64189 53.1357 10.2517 59.7466C16.8615 66.3575 25.647 70 35 70ZM35 3.5479C52.3463 3.5479 66.4527 17.6567 66.4527 35.0059C66.4527 52.3551 52.3463 66.4639 35 66.4639C17.6537 66.4639 3.5473 52.3433 3.5473 35.0059C3.5473 17.6685 17.6537 3.5479 35 3.5479Z" fill="#333333"/>
<path d="M35.0001 61.0593C41.9646 61.0593 48.5034 58.351 53.4224 53.4313C58.3413 48.5115 61.049 41.9598 61.049 35.0059C61.049 28.052 58.3413 21.5002 53.4224 16.5805C48.5034 11.6607 41.9528 8.95251 35.0001 8.95251C28.0474 8.95251 21.4967 11.6607 16.5778 16.5805C11.6589 21.5002 8.95108 28.052 8.95108 35.0059C8.95108 41.9716 11.6589 48.5115 16.5778 53.4313C21.4967 58.351 28.0355 61.0593 35.0001 61.0593ZM35.0001 12.4886C47.4156 12.4886 57.5136 22.5883 57.5136 35.0059C57.5136 47.4235 47.4156 57.5232 35.0001 57.5232C22.5845 57.5232 12.4866 47.4235 12.4866 35.0059C12.4866 22.5883 22.5845 12.4886 35.0001 12.4886Z" fill="#333333"/>
<path d="M39.8715 34.9468C39.8715 32.2504 37.684 30.0625 34.9881 30.0625C32.2921 30.0625 30.1046 32.2504 30.1046 34.9468C30.1046 37.6432 32.2921 39.8311 34.9881 39.8311C37.684 39.8311 39.8715 37.6432 39.8715 34.9468ZM35 36.2832C34.2669 36.2832 33.6639 35.68 33.6639 34.9468C33.6639 34.2136 34.2669 33.6104 35 33.6104C35.7331 33.6104 36.3362 34.2136 36.3362 34.9468C36.3243 35.68 35.7331 36.2832 35 36.2832Z" fill="#333333"/>
<path d="M26.2932 18.2011C26.2932 18.2372 26.2932 18.2613 26.3053 18.2974C26.3053 18.3215 26.3053 18.3576 26.3174 18.3817C26.3174 18.4178 26.3294 18.4419 26.3294 18.478C26.3294 18.5141 26.3415 18.5382 26.3415 18.5743C26.3415 18.6104 26.3536 18.6345 26.3536 18.6706C26.3536 18.7067 26.3657 18.7308 26.3657 18.7669C26.3777 18.803 26.3777 18.8271 26.3898 18.8632C26.4019 18.8993 26.4019 18.9234 26.414 18.9595C26.426 18.9836 26.4381 19.0197 26.4381 19.0437C26.4502 19.0799 26.4623 19.1039 26.4623 19.14C26.4743 19.1641 26.4864 19.2002 26.4985 19.2243C26.5106 19.2604 26.5227 19.2845 26.5347 19.3206C26.5468 19.3567 26.5589 19.3808 26.571 19.4169C26.583 19.441 26.5951 19.4771 26.6072 19.5012C26.6193 19.5252 26.6313 19.5493 26.6434 19.5734C26.6555 19.6095 26.6796 19.6336 26.6917 19.6697C26.7038 19.6817 26.7038 19.6938 26.7159 19.7058C26.74 19.754 26.7642 19.7901 26.7883 19.8382C26.8245 19.8984 26.8608 19.9466 26.897 19.9947L32.3674 27.5062C32.9832 28.3488 33.9372 28.8303 34.9878 28.8303C36.0384 28.8303 36.9924 28.3488 37.6083 27.4941L43.0786 19.9827C43.6945 19.14 43.8636 18.0807 43.5375 17.0937C43.2115 16.0945 42.4507 15.3362 41.4484 15.0112C39.3714 14.3371 37.1977 14 34.9878 14C32.7779 14 30.6043 14.3371 28.5272 15.0112C28.4669 15.0352 28.4065 15.0593 28.3461 15.0713C28.322 15.0834 28.2857 15.0954 28.2616 15.1075C28.2253 15.1195 28.2012 15.1315 28.165 15.1436C27.3438 15.5167 26.7279 16.2029 26.4381 17.0816C26.426 17.1057 26.426 17.1298 26.414 17.1418C26.4019 17.1779 26.3898 17.2261 26.3777 17.2622C26.3657 17.2863 26.3657 17.3103 26.3657 17.3344C26.3536 17.3705 26.3415 17.4066 26.3415 17.4427C26.3415 17.4668 26.3294 17.5029 26.3294 17.527C26.3294 17.5631 26.3174 17.5992 26.3174 17.6353C26.3174 17.6594 26.3053 17.6955 26.3053 17.7196C26.3053 17.7557 26.2932 17.7798 26.2932 17.8159C26.2932 17.852 26.2932 17.8761 26.2932 17.9122C26.2932 17.9483 26.2932 17.9724 26.2932 18.0085C26.2932 18.0446 26.2932 18.0807 26.2932 18.1169C26.2932 18.1409 26.2932 18.165 26.2932 18.2011ZM35.012 17.5872C36.6664 17.5872 38.2845 17.8159 39.8544 18.2733L35.012 24.9181L30.1696 18.2733C31.7273 17.8159 33.3576 17.5872 35.012 17.5872Z" fill="#1E69B8"/>
<path d="M40.8448 33.0315C41.1708 34.0306 41.9316 34.7769 42.9218 35.1019L51.7855 37.9789C52.1116 38.0873 52.4497 38.1354 52.7878 38.1354C54.563 38.1354 56 36.7029 56 34.9455V34.9214C56 30.4675 54.6234 26.2182 52.0029 22.631C51.387 21.7884 50.433 21.2948 49.3824 21.2948C48.3318 21.2948 47.3778 21.7764 46.762 22.631L41.2916 30.1304C40.6878 30.9731 40.5187 32.0324 40.8448 33.0315ZM49.3824 25.183C51.2421 27.9035 52.2686 31.0573 52.3772 34.3677L44.54 31.8277L49.3824 25.183Z" fill="#1E69B8"/>
<path d="M50.3726 42.2763L41.521 39.4113C41.1949 39.303 40.8568 39.2548 40.5187 39.2548C38.7315 39.2548 37.2824 40.6994 37.2824 42.4809V51.7619C37.2824 53.5435 38.7315 55 40.5187 55C40.8568 55 41.1949 54.9398 41.5089 54.8435C45.663 53.4953 49.3824 50.8109 51.9787 47.2719C52.5946 46.4292 52.7757 45.3459 52.4496 44.3588C52.1236 43.3476 51.3628 42.5893 50.3726 42.2763ZM40.9051 51.2202V42.9985L48.7424 45.5385C46.7257 48.1145 43.9724 50.1127 40.9051 51.2202Z" fill="#1E69B8"/>
<path d="M28.5032 54.8314C28.8292 54.9398 29.1673 54.9879 29.5055 54.9879C31.2927 54.9879 32.7418 53.5434 32.7418 51.7498V42.4688C32.7418 40.6873 31.2927 39.2428 29.5055 39.2428C29.1673 39.2428 28.8292 39.2909 28.5032 39.3993L19.6516 42.2642C18.6493 42.5892 17.9006 43.3476 17.5745 44.3347C17.2485 45.3218 17.4296 46.4051 18.0455 47.2478C20.6297 50.7868 24.3491 53.4832 28.5032 54.8314ZM29.119 42.9985V51.2202C26.0518 50.1127 23.2985 48.1265 21.2818 45.5384L29.119 42.9985Z" fill="#1E69B8"/>
<path d="M27.0902 35.1019C27.1506 35.0778 27.211 35.0658 27.2714 35.0417C28.1771 34.6926 28.8654 33.9704 29.1673 33.0314C29.4933 32.0323 29.3243 30.985 28.7084 30.1424L23.238 22.643C22.6222 21.8004 21.6682 21.3068 20.6176 21.3068C19.567 21.3068 18.613 21.7883 17.9971 22.643C15.3887 26.2182 14 30.4674 14 34.9093V34.9334C14 36.6908 15.437 38.1233 17.2122 38.1233C17.5503 38.1233 17.9005 38.0631 18.2145 37.9668L27.0902 35.1019ZM20.6296 25.1829L25.4721 31.8277L17.6348 34.3676C17.7435 31.0573 18.77 27.9034 20.6296 25.1829Z" fill="#1E69B8"/>
</svg>

