<svg width="70" height="70" viewBox="0 0 70 70" fill="none" xmlns="http://www.w3.org/2000/svg">
<path d="M23.2032 0C19.5016 0 15.9774 1.75779 13.7895 4.69133L10.62 8.96358L4.56496 10.2325C1.91586 10.7912 0 13.1194 0 15.7852V21.4311C0 24.4694 1.84491 27.2051 4.68322 28.3924C4.90792 28.4856 5.14445 28.5321 5.36915 28.5321C6.05508 28.5321 6.71735 28.1363 7.00118 27.4612C7.37962 26.5764 6.9657 25.552 6.05508 25.1679C4.51765 24.5276 3.53607 23.0609 3.53607 21.4195V15.7736C3.53607 14.7492 4.2693 13.8528 5.28637 13.6433L12.0037 12.2347C12.4295 12.1416 12.8079 11.9088 13.0681 11.5595L16.6515 6.75179C18.1771 4.71461 20.6251 3.49231 23.2032 3.49231H36.2713C38.5065 3.49231 40.6589 4.41195 42.1845 6.00676L47.6483 11.7225C48.3223 12.421 49.4459 12.4559 50.1554 11.804C50.865 11.1405 50.9005 10.0346 50.2382 9.3361L44.7745 3.62036C42.5866 1.31544 39.4881 0 36.2713 0H23.2032Z" fill="#333333"/>
<path d="M65.6598 13.6084C64.8201 13.0729 63.8976 12.6654 62.9279 12.4093L54.5903 10.2092C53.6442 9.96471 52.6745 10.5118 52.4143 11.4431C52.1659 12.3744 52.7218 13.329 53.6679 13.5851L62.0054 15.7852C62.6204 15.9482 63.1881 16.1927 63.7203 16.5303C65.4232 17.6245 66.4403 19.4638 66.4403 21.4777V24.062C66.4403 24.8536 65.7899 25.4938 64.9857 25.4938H58.5167C58.3038 21.4195 54.8742 18.16 50.6758 18.16C46.4775 18.16 43.0478 21.4078 42.835 25.4938H24.3504C24.1376 21.4195 20.7079 18.16 16.5096 18.16C12.1811 18.16 8.6569 21.629 8.6569 25.8896C8.6569 26.4833 8.72786 27.0654 8.85795 27.6358C9.08265 28.5787 10.0288 29.1608 10.9867 28.9396C11.9446 28.7184 12.5359 27.7871 12.3112 26.8442C12.2403 26.5299 12.2048 26.2156 12.2048 25.8896C12.2048 23.5614 14.1325 21.6523 16.5096 21.6523C18.8748 21.6523 20.8144 23.5498 20.8144 25.8896C20.8144 26.2156 20.7789 26.5415 20.7079 26.8442V26.8558C20.6961 26.8908 20.6961 26.9257 20.6843 26.9606C20.6843 26.9839 20.6724 27.0072 20.6724 27.0421C20.6724 27.0654 20.6724 27.0887 20.6606 27.1236C20.6606 27.1585 20.6606 27.1934 20.6606 27.2284V27.24C20.6606 27.2516 20.6606 27.2749 20.6606 27.2866C20.6606 27.3215 20.6606 27.3564 20.6606 27.403C20.6606 27.4263 20.6606 27.4495 20.6724 27.4728C20.6724 27.5077 20.6843 27.5427 20.6843 27.5776C20.6843 27.6009 20.6961 27.6358 20.7079 27.6591C20.7197 27.6824 20.7197 27.7173 20.7316 27.7406C20.7434 27.7755 20.7552 27.7988 20.7552 27.822C20.7671 27.8453 20.7671 27.8686 20.7789 27.8919C20.7907 27.9268 20.8025 27.9501 20.8144 27.985C20.8262 28.0083 20.838 28.0316 20.8498 28.0549C20.8617 28.0781 20.8853 28.1131 20.8971 28.1364C20.909 28.1596 20.9208 28.1829 20.9326 28.1946C20.9445 28.2178 20.9681 28.2411 20.9799 28.2644C20.9918 28.2877 21.0154 28.311 21.0272 28.3343C21.0391 28.3575 21.0627 28.3808 21.0745 28.3925C21.0982 28.4157 21.11 28.439 21.1337 28.4623C21.1455 28.4739 21.1691 28.4972 21.181 28.5089C21.2046 28.5321 21.2283 28.5554 21.2519 28.5787C21.2756 28.5904 21.2874 28.6136 21.3111 28.6253C21.3347 28.6486 21.3584 28.6602 21.3938 28.6835C21.4175 28.6951 21.4293 28.7068 21.453 28.7184C21.4766 28.73 21.5121 28.7533 21.5358 28.765C21.5594 28.7766 21.5831 28.7882 21.6067 28.7999C21.6304 28.8115 21.654 28.8232 21.6777 28.8348C21.7132 28.8465 21.7368 28.8581 21.7723 28.8697C21.7959 28.8814 21.8196 28.8814 21.8433 28.893C21.8787 28.9047 21.9142 28.9163 21.9497 28.9279C21.9615 28.9279 21.9852 28.9396 21.997 28.9396H22.0088C22.0561 28.9512 22.1034 28.9629 22.1507 28.9629C22.1626 28.9629 22.1862 28.9629 22.198 28.9745C22.2453 28.9745 22.2926 28.9861 22.34 28.9861C22.3518 28.9861 22.3754 28.9861 22.3873 28.9861C22.3873 28.9861 22.3873 28.9861 22.3991 28.9861H44.7272C44.739 28.9861 44.739 28.9861 44.7508 28.9861C44.7863 28.9861 44.81 28.9861 44.8454 28.9861C44.8809 28.9861 44.9046 28.9861 44.9401 28.9745C44.9637 28.9745 44.9874 28.9629 45.011 28.9629C45.0465 28.9512 45.082 28.9512 45.1293 28.9396H45.1411C45.1529 28.9396 45.1648 28.9279 45.1766 28.9279C45.2121 28.9163 45.2594 28.9047 45.2948 28.893C45.3185 28.8814 45.3303 28.8814 45.354 28.8697C45.3895 28.8581 45.4249 28.8465 45.4604 28.8232C45.4841 28.8115 45.5077 28.7999 45.5314 28.7883C45.555 28.7766 45.5905 28.765 45.6142 28.7417C45.6378 28.73 45.6615 28.7184 45.6851 28.6951C45.7088 28.6835 45.7324 28.6602 45.7561 28.6486C45.7797 28.6369 45.8034 28.6136 45.827 28.5904C45.8507 28.5787 45.8743 28.5554 45.8862 28.5438C45.9098 28.5205 45.9335 28.5089 45.9571 28.4856C45.9808 28.4623 45.9926 28.4507 46.0163 28.4274C46.0399 28.4041 46.0517 28.3925 46.0754 28.3692C46.099 28.3459 46.1109 28.3226 46.1345 28.2993C46.1463 28.276 46.17 28.2644 46.1818 28.2411C46.2055 28.2178 46.2173 28.1829 46.241 28.1596C46.2528 28.1364 46.2646 28.1247 46.2764 28.1014C46.3001 28.0665 46.3119 28.0432 46.3237 28.0083C46.3356 27.985 46.3474 27.9734 46.3474 27.9501C46.3592 27.9152 46.3829 27.8919 46.3947 27.857C46.4065 27.8337 46.4065 27.8104 46.4183 27.7988C46.4302 27.7638 46.442 27.7406 46.4538 27.7056C46.4657 27.6824 46.4657 27.6591 46.4775 27.6241C46.4893 27.6009 46.4893 27.5659 46.5011 27.5427C46.5011 27.5077 46.513 27.4845 46.513 27.4495C46.513 27.4263 46.5248 27.403 46.5248 27.3797C46.5248 27.3448 46.5248 27.3098 46.5248 27.2749C46.5248 27.2633 46.5248 27.24 46.5248 27.2284C46.5248 27.2167 46.5248 27.2167 46.5248 27.2051C46.5248 27.1701 46.5248 27.1352 46.5248 27.1119C46.5248 27.0887 46.5248 27.0537 46.513 27.0305C46.513 27.0072 46.5011 26.9839 46.5011 26.9606C46.5011 26.9257 46.4893 26.8908 46.4775 26.8558V26.8442C46.4065 26.5299 46.371 26.2156 46.371 25.8896C46.371 23.5614 48.2987 21.6523 50.6758 21.6523C53.0411 21.6523 54.9806 23.5498 54.9806 25.8896C54.9806 26.2156 54.9451 26.5415 54.8742 26.8442V26.8558C54.8623 26.8908 54.8623 26.9257 54.8505 26.9606C54.8505 26.9839 54.8387 27.0072 54.8387 27.0421C54.8387 27.0654 54.8387 27.0887 54.8387 27.1119C54.8387 27.1469 54.8387 27.1818 54.8387 27.2167V27.2284C54.8387 27.24 54.8387 27.2633 54.8387 27.2749C54.8387 27.3098 54.8387 27.3564 54.8505 27.3913C54.8505 27.4146 54.8505 27.4379 54.8623 27.4612C54.8623 27.4961 54.8742 27.531 54.8742 27.5659C54.8742 27.5892 54.886 27.6125 54.886 27.6474C54.8978 27.6707 54.8978 27.7056 54.9096 27.7289C54.9215 27.7522 54.9333 27.7871 54.9333 27.8104C54.9451 27.8337 54.9451 27.857 54.957 27.8803C54.9688 27.9152 54.9806 27.9385 54.9924 27.9617C55.0043 27.985 55.0161 28.0083 55.0279 28.0316C55.0397 28.0549 55.0634 28.0898 55.0752 28.1131C55.087 28.1364 55.0989 28.1596 55.1107 28.1829C55.1225 28.2062 55.1462 28.2295 55.158 28.2528C55.1698 28.276 55.1935 28.2993 55.2053 28.3226C55.2171 28.3459 55.2408 28.3575 55.2526 28.3808C55.2763 28.4041 55.2881 28.4274 55.3117 28.4507C55.3236 28.4623 55.3472 28.4856 55.3591 28.4972C55.3827 28.5205 55.4064 28.5438 55.43 28.5671C55.4537 28.5787 55.4655 28.5904 55.4891 28.6136C55.5128 28.6369 55.5364 28.6486 55.5719 28.6718C55.5956 28.6835 55.6074 28.6951 55.6311 28.7068C55.6547 28.7184 55.6902 28.7417 55.7138 28.7533C55.7375 28.765 55.7611 28.7766 55.7848 28.7883C55.8084 28.7999 55.8321 28.8115 55.8558 28.8232C55.8912 28.8348 55.9149 28.8465 55.9504 28.8581C55.974 28.8697 55.9977 28.8697 56.0213 28.8814C56.0568 28.893 56.0923 28.9047 56.1278 28.9163C56.1396 28.9163 56.1632 28.9279 56.1751 28.9279H56.1869C56.2342 28.9396 56.2815 28.9512 56.3288 28.9512C56.3406 28.9512 56.3643 28.9512 56.3761 28.9629C56.4234 28.9629 56.4707 28.9745 56.518 28.9745C56.5299 28.9745 56.5535 28.9745 56.5653 28.9745C56.5653 28.9745 56.5653 28.9745 56.5772 28.9745H64.9502C67.7057 28.9745 69.9527 26.7627 69.9527 24.0504V21.466C70 18.288 68.3798 15.3429 65.6598 13.6084Z" fill="#333333"/>
<path d="M20.4478 56.6102C19.4662 56.6102 18.6738 57.3902 18.6738 58.3564V67.0872C18.6738 68.0534 19.4662 68.8333 20.4478 68.8333H46.7495C47.7311 68.8333 48.5235 68.0534 48.5235 67.0872V58.3564C48.5235 57.3902 47.7311 56.6102 46.7495 56.6102H39.7602L35.9048 52.0935L40.2805 46.9482L40.2923 46.9366C40.316 46.9133 40.3396 46.8783 40.3633 46.8434C40.3751 46.8201 40.387 46.8085 40.3988 46.7852C40.4224 46.7619 40.4343 46.727 40.4579 46.6921C40.4697 46.6688 40.4816 46.6455 40.4934 46.6339C40.5052 46.6106 40.517 46.5757 40.5289 46.5524C40.5407 46.5291 40.5525 46.5058 40.5644 46.4709C40.5762 46.4476 40.5762 46.4243 40.588 46.4011C40.5998 46.3661 40.6117 46.3429 40.6235 46.3079C40.6353 46.2847 40.6353 46.2614 40.6353 46.2381C40.6471 46.2032 40.6471 46.1682 40.659 46.145C40.659 46.1217 40.6708 46.0984 40.6708 46.0751C40.6708 46.0402 40.6826 46.0053 40.6826 45.982C40.6826 45.9587 40.6826 45.9354 40.6826 45.9005C40.6826 45.8656 40.6826 45.8423 40.6826 45.8074C40.6826 45.7725 40.6826 45.7492 40.6826 45.7142C40.6826 45.691 40.6826 45.6677 40.6826 45.6328C40.6826 45.5978 40.6708 45.5629 40.6708 45.5396C40.6708 45.5164 40.659 45.4931 40.659 45.4698C40.6471 45.4349 40.6471 45.3999 40.6353 45.3767C40.6353 45.3534 40.6235 45.3301 40.6235 45.3068C40.6117 45.2719 40.5998 45.2486 40.588 45.2137C40.5762 45.1904 40.5762 45.1671 40.5644 45.1438C40.5525 45.1206 40.5407 45.0973 40.5289 45.0624C40.517 45.0391 40.5052 45.0041 40.4934 44.9809C40.4816 44.9576 40.4697 44.9343 40.4579 44.9227C40.4461 44.8877 40.4224 44.8645 40.3988 44.8295C40.387 44.8062 40.3751 44.7946 40.3633 44.7713C40.3396 44.7364 40.316 44.7131 40.2923 44.6782L40.2805 44.6666L35.9048 39.5212L39.7602 35.0045H44.7627C45.7443 35.0045 46.5366 34.2246 46.5366 33.2584C46.5366 32.2922 45.7443 31.5122 44.7627 31.5122H22.4228C21.4412 31.5122 20.6488 32.2922 20.6488 33.2584C20.6488 34.2246 21.4412 35.0045 22.4228 35.0045H27.4371L31.2925 39.5212L26.9168 44.6666L26.9049 44.6782C26.8813 44.7131 26.8576 44.7364 26.834 44.7713C26.8222 44.783 26.8103 44.8062 26.7985 44.8179C26.7749 44.8528 26.763 44.8761 26.7394 44.911C26.7276 44.9343 26.7157 44.9459 26.7039 44.9692C26.6921 44.9925 26.6802 45.0274 26.6684 45.0507C26.6566 45.074 26.6448 45.0973 26.6329 45.1206C26.6211 45.1438 26.6093 45.1671 26.6093 45.1904C26.5975 45.2253 26.5856 45.2486 26.5738 45.2835C26.562 45.3068 26.562 45.3301 26.562 45.3534C26.5502 45.3883 26.5502 45.4116 26.5383 45.4465C26.5383 45.4698 26.5265 45.4931 26.5265 45.5163C26.5265 45.5513 26.5147 45.5746 26.5147 45.6095C26.5147 45.6328 26.5147 45.656 26.5147 45.691C26.5147 45.7259 26.5147 45.7492 26.5147 45.7841C26.5147 45.819 26.5147 45.8423 26.5147 45.8772C26.5147 45.9005 26.5147 45.9238 26.5147 45.9587C26.5147 45.9936 26.5265 46.0286 26.5265 46.0518C26.5265 46.0751 26.5383 46.0984 26.5383 46.1217C26.5502 46.1566 26.5502 46.1915 26.562 46.2148C26.562 46.2381 26.5738 46.2614 26.5738 46.2847C26.5856 46.3196 26.5975 46.3429 26.6093 46.3778C26.6211 46.4011 26.6211 46.4243 26.6329 46.4476C26.6448 46.4709 26.6566 46.4942 26.6684 46.5175C26.6802 46.5408 26.6921 46.5757 26.7039 46.599C26.7157 46.6222 26.7276 46.6339 26.7394 46.6572C26.763 46.6921 26.7749 46.7154 26.7985 46.7503C26.8103 46.7736 26.8222 46.7852 26.834 46.7969C26.8576 46.8318 26.8813 46.8551 26.9049 46.89L26.9168 46.9016L31.2925 52.047L27.4371 56.6102H20.4478ZM44.9874 65.341H22.2217V60.1025H44.9874V65.341ZM32.0731 35.0278L35.1479 35.0278L33.6105 36.8321L32.0731 35.0278ZM30.5829 45.819L33.6105 42.2685L36.638 45.819L33.6105 49.3695L30.5829 45.819ZM33.5987 54.8058L35.1361 56.6102L32.0612 56.6102L33.5987 54.8058Z" fill="#1E69B8"/>
</svg>

