<svg xmlns="http://www.w3.org/2000/svg" width="65" height="65" viewBox="0 0 65 65">
  <defs>
    <style>
      .cls-1 {
        fill: #1e69b8;
        fill-rule: evenodd;
      }
    </style>
  </defs>
  <path id="logo.svg" class="cls-1" d="M321.155,1442.77A33.687,33.687,0,0,0,331,1419a32.035,32.035,0,0,0-9.258-22.69,31.515,31.515,0,0,0-22.993-9.31,33.114,33.114,0,0,0-32.675,32.03L266,1420.7l9.085-.12,0.032-1.53a22.991,22.991,0,0,1,6.7-15.86c9.375-9.43,24.423-9.64,33.548-.46s8.921,24.33-.458,33.76a22.589,22.589,0,0,1-18.8,6.23,24.476,24.476,0,0,1-9.6-3.28l7.879-7.93,2.492-2.5h8.129l6.351-6.34-0.008-6.81-1.747-1.75-6.073,6.11h-4.2v-4.23l6.073-6.11-1.747-1.76h-6.723l-6.339,6.38v8.19l-16.878,17.05,2.433,2.45a33.637,33.637,0,0,0,4.11,3.54,32.213,32.213,0,0,0,8.415,4.46,30.835,30.835,0,0,0,32.479-7.42m-34.646-3.33h0a24.386,24.386,0,0,0,4.88,2.23h0a25,25,0,0,1-4.882-2.23m0,0-6.248,6.29a33.409,33.409,0,0,0,4.387,2.72l6.741-6.78a24.386,24.386,0,0,1-4.88-2.23h0" transform="translate(-266 -1387)"/>
</svg>

